<svg width="24" height="24" viewBox="0 0 24 24" fill="none" xmlns="http://www.w3.org/2000/svg">
<path d="M22.35 5.5H22.3C22.316 5.5 22.3327 5.5 22.35 5.5ZM22.35 5.5H22.4H22.35ZM19.4036 7.35355L20.2571 6.5H19.05H16.2C15.0338 6.5 13.8678 7.13392 13.2725 8.14056L8.12882 16.3805C7.26452 17.6967 5.86815 18.5 4.3 18.5H2.5C2.22614 18.5 2 18.2739 2 18C2 17.7261 2.22614 17.5 2.5 17.5H4.3C5.51272 17.5 6.62891 16.919 7.27536 15.8628L12.4212 7.61954C13.2855 6.30335 14.6818 5.5 16.25 5.5H19.1H20.3071L19.4536 4.64645L18.1536 3.34645C17.9488 3.14171 17.9488 2.85829 18.1536 2.65355C18.3583 2.44882 18.6417 2.44882 18.8464 2.65355L21.8464 5.65355L21.95 5.75711V5.80736L22 5.85727V5.9071L22.0804 5.98753C22.065 6.01304 22.0497 6.04305 22.0366 6.07754C22.0175 6.10774 21.998 6.14489 21.9824 6.18894L21.9818 6.19055C21.9783 6.20081 21.9751 6.21084 21.9723 6.22059L21.8464 6.34645L18.8464 9.34645C18.7372 9.45567 18.6132 9.5 18.5 9.5C18.3967 9.5 18.261 9.46225 18.0858 9.32793C17.899 9.12488 17.9049 8.85219 18.1036 8.65355L19.4036 7.35355ZM22.0715 5.90356C22.0759 5.908 22.0741 5.90666 22.0686 5.90079L22.0689 5.90105C22.0699 5.90206 22.0708 5.9029 22.0715 5.90356ZM7.27875 8.14276L7.27876 8.14275L7.27664 8.13929C6.63039 7.08178 5.51352 6.50001 4.3 6.50001H2.5C2.24198 6.50001 2 6.28998 2 5.95001C2 5.67615 2.22614 5.45001 2.5 5.45001H4.3C5.72345 5.45001 7.03189 6.11156 7.89946 7.26452L7.31092 8.19638L7.27875 8.14276ZM21.9 17.85V18.2763C21.8821 18.3066 21.8669 18.326 21.8464 18.3464L18.8464 21.3464C18.7372 21.4557 18.6132 21.5 18.5 21.5C18.3967 21.5 18.261 21.4623 18.0858 21.3279C17.899 21.1249 17.9049 20.8522 18.1036 20.6536L19.4036 19.3536L20.2571 18.5H19.05H16.2C14.7787 18.5 13.4721 17.8405 12.6045 16.6908L13.2305 15.7393L13.2713 15.8072L13.2712 15.8073L13.2734 15.8107C13.9196 16.8682 15.0365 17.45 16.25 17.45H19.1H20.3071L19.4536 16.5964L18.1536 15.2964C17.9488 15.0917 17.9488 14.8083 18.1536 14.6036C18.3583 14.3988 18.6417 14.3988 18.8464 14.6036L21.8464 17.6036C21.8669 17.624 21.8821 17.6434 21.9 17.6737V17.8071L21.9429 17.85H21.9Z" fill="#FCFCFC" stroke="#FCFCFC"/>
</svg>
