<svg width="24" height="24" viewBox="0 0 24 24" fill="none" xmlns="http://www.w3.org/2000/svg">
<path fill-rule="evenodd" clip-rule="evenodd" d="M16.2929 1.29289C16.6834 0.90237 17.3166 0.90237 17.7071 1.29289L20.7071 4.29289C21.0976 4.68342 21.0976 5.31658 20.7071 5.70711L17.7071 8.70711C17.3166 9.09763 16.6834 9.09763 16.2929 8.70711C15.9024 8.31658 15.9024 7.68342 16.2929 7.29289L17.5858 6H8.5C5.20228 6 2.5 8.70228 2.5 12C2.5 12.5523 2.05228 13 1.5 13C0.947715 13 0.5 12.5523 0.5 12C0.5 7.59772 4.09772 4 8.5 4H17.5858L16.2929 2.70711C15.9024 2.31658 15.9024 1.68342 16.2929 1.29289ZM23.5 12C23.5 11.4477 23.0523 11 22.5 11C21.9477 11 21.5 11.4477 21.5 12C21.5 15.2977 18.7977 18 15.5 18H6.41421L7.70711 16.7071C8.09763 16.3166 8.09763 15.6834 7.70711 15.2929C7.31658 14.9024 6.68342 14.9024 6.29289 15.2929L3.29289 18.2929C2.90237 18.6834 2.90237 19.3166 3.29289 19.7071L6.29289 22.7071C6.68342 23.0976 7.31658 23.0976 7.70711 22.7071C8.09763 22.3166 8.09763 21.6834 7.70711 21.2929L6.41421 20H15.5C19.9023 20 23.5 16.4023 23.5 12Z" fill="#9898A6"/>
</svg>
